<svg xmlns="http://www.w3.org/2000/svg"  viewBox="0 0 40 40" width="24px" height="24px"><path fill="#dff0fe" d="M20,38.5C9.799,38.5,1.5,30.201,1.5,20S9.799,1.5,20,1.5S38.5,9.799,38.5,20S30.201,38.5,20,38.5z M20,5.5C12.005,5.5,5.5,12.005,5.5,20S12.005,34.5,20,34.5S34.5,27.995,34.5,20S27.995,5.5,20,5.5z"/><path fill="#4788c7" d="M20,2c9.925,0,18,8.075,18,18s-8.075,18-18,18S2,29.925,2,20S10.075,2,20,2 M20,35 c8.271,0,15-6.729,15-15S28.271,5,20,5S5,11.729,5,20S11.729,35,20,35 M20,1C9.507,1,1,9.507,1,20s8.507,19,19,19s19-8.507,19-19 S30.493,1,20,1L20,1z M20,34c-7.732,0-14-6.268-14-14c0-7.732,6.268-14,14-14s14,6.268,14,14C34,27.732,27.732,34,20,34L20,34z"/></svg>