<svg xmlns="http://www.w3.org/2000/svg"  viewBox="0 0 256 256" width="512px" height="512px"><path fill="#e9e9ea" d="M198.6,78.7V42.2c0-3.3-2.7-6-6-6l0,0h-12v73.7L198.6,78.7z"/><path fill="#e9e9ea" d="M180.5,147.5v66.2c0,3.3-2.7,6-6,6l0,0h-118v12.2c0,3.3,2.7,6,6,6h0h130c3.3,0,6-2.7,6-6l0,0V116.3 L180.5,147.5z"/><path fill="#e9e9ea" d="M170.4,165c-1,1.7-3.1,2.2-4.8,1.3l-10.2-5.9c-1.7-1-2.2-3.1-1.3-4.8l26.4-45.7V24c0-3.3-2.7-6-6-6l0,0H72.4 c-2.5,0-4.8,1-6.6,2.7L41.3,45.3c-1.7,1.7-2.7,4.1-2.7,6.6v161.8c0,3.3,2.7,6,6,6h0h130c3.3,0,6-2.7,6-6l0,0v-66.2L170.4,165z"/><path fill="#6d6c6b" d="M223,55.1c-3.5-2-8-0.8-10,2.7c0,0,0,0,0,0l-2,3.5c0.5,0.1,0.9,0.2,1.4,0.4l10.2,5.9c0.4,0.2,0.8,0.6,1.1,1 l2-3.5C227.7,61.6,226.5,57.1,223,55.1z"/><path fill="#6d6c6b" d="M212.4,61.7l10.2,5.9c1.7,1,2.2,3.1,1.3,4.8L170.4,165c-1,1.7-3.1,2.2-4.8,1.3l-10.2-5.9 c-1.7-1-2.2-3.1-1.3-4.8L207.6,63C208.6,61.3,210.7,60.8,212.4,61.7z"/><path fill="#6d6c6b" d="M165.7,166.3l-10.2-5.9c-0.4-0.2-0.8-0.6-1.1-1l-5.7,10l12.7,7.3l5.8-10C166.5,166.7,166.1,166.5,165.7,166.3z"/><path fill="#ffcd29" d="M148.6,169.4l-2.1,15.2c-0.1,0.9,0.5,1.8,1.4,1.9c0.5,0.1,0.9-0.1,1.3-0.3l12.1-9.4L148.6,169.4z"/><path fill="#55acd5" d="M65.1,48c1.9,0,3.5-1.6,3.5-3.5V18.9c-1,0.5-1.9,1.1-2.7,1.9L53.6,33L41.3,45.3c-0.8,0.8-1.4,1.7-1.9,2.7H65.1 z"/><path fill="#231f20" d="M180.5,112.4c-1.4,0-2.5-1.1-2.5-2.5V36.2c0-1.4,1.1-2.5,2.5-2.5h12c4.7,0,8.5,3.8,8.5,8.5v36.5 c0,0.4-0.1,0.9-0.3,1.2l-18,31.2C182.3,111.9,181.4,112.4,180.5,112.4z M183,38.7v61.9l13-22.6V42.2c0-1.9-1.6-3.5-3.5-3.5 L183,38.7z M198.6,78.7L198.6,78.7z"/><path fill="#231f20" d="M192.6,240.3h-130c-4.7,0-8.5-3.8-8.5-8.5v-12.2c0-1.4,1.1-2.5,2.5-2.5h118c1.9,0,3.5-1.6,3.5-3.5v-66.2 c0-0.4,0.1-0.9,0.3-1.2l18-31.2c0.7-1.2,2.2-1.6,3.4-0.9c0.8,0.4,1.2,1.3,1.2,2.2v115.6C201,236.5,197.3,240.3,192.6,240.3z M59.1,222.2v9.7c0,1.9,1.6,3.5,3.5,3.5h130c1.9,0,3.5-1.6,3.5-3.5V125.6l-13,22.6v65.5c0,4.7-3.8,8.5-8.5,8.5L59.1,222.2z"/><path fill="#231f20" d="M174.6,222.2h-130c-4.7,0-8.5-3.8-8.5-8.5V51.9c0-3.1,1.2-6.1,3.5-8.3L64.1,19c2.2-2.2,5.2-3.5,8.3-3.5h102.1 c4.7,0,8.5,3.8,8.5,8.5v85.9c0,0.4-0.1,0.9-0.3,1.2l-26.4,45.7c-0.3,0.5-0.1,1.1,0.4,1.3l10.2,5.9c0.5,0.3,1.1,0.1,1.3-0.4 l10.1-17.5c0.7-1.2,2.2-1.6,3.4-0.9c0.8,0.4,1.2,1.3,1.2,2.2v66.2C183,218.4,179.2,222.2,174.6,222.2z M72.4,20.5 c-1.8,0-3.5,0.7-4.8,2L43.1,47c-1.3,1.3-2,3-2,4.8v161.8c0,1.9,1.6,3.5,3.5,3.5h130c1.9,0,3.5-1.6,3.5-3.5v-56.8l-5.4,9.4l0,0 c-1.7,2.9-5.3,3.8-8.2,2.2l-10.2-5.9c-2.9-1.7-3.8-5.3-2.2-8.2l26.1-45.1V24c0-1.9-1.6-3.5-3.5-3.5L72.4,20.5z M170.4,165 L170.4,165z"/><path fill="#55acd5" d="M36.1,235.3h-1.8v-1.8c0-1.4-1.1-2.5-2.5-2.5c-1.4,0-2.5,1.1-2.5,2.5v1.8h-1.8c-1.4,0-2.5,1.1-2.5,2.5 s1.1,2.5,2.5,2.5h1.8v1.8c0,1.4,1.1,2.5,2.5,2.5c1.4,0,2.5-1.1,2.5-2.5v-1.8h1.8c1.4,0,2.5-1.1,2.5-2.5S37.5,235.3,36.1,235.3 L36.1,235.3z"/><path fill="#ea4647" d="M214.2,20.8c0-0.2-0.1-0.3-0.1-0.5c-0.1-0.1-0.1-0.3-0.2-0.4c-0.1-0.1-0.2-0.3-0.3-0.4c-1-0.9-2.5-0.9-3.5,0 c-0.1,0.1-0.2,0.2-0.3,0.4c-0.2,0.3-0.3,0.6-0.4,0.9c-0.1,0.3-0.1,0.7,0,1c0,0.2,0.1,0.3,0.1,0.5c0.1,0.2,0.1,0.3,0.2,0.4 c0.1,0.1,0.2,0.3,0.3,0.4c1,1,2.5,1,3.5,0c0,0,0,0,0,0c0.1-0.1,0.2-0.2,0.3-0.4c0.1-0.1,0.2-0.3,0.2-0.4c0.1-0.1,0.1-0.3,0.1-0.5 C214.3,21.5,214.3,21.2,214.2,20.8z"/><path fill="#6dcc6d" d="M54,253c0-0.2-0.1-0.3-0.1-0.5c-0.1-0.1-0.1-0.3-0.2-0.4c-0.1-0.1-0.2-0.3-0.3-0.4c-1-0.9-2.5-0.9-3.5,0 c-0.1,0.1-0.2,0.2-0.3,0.4c-0.2,0.3-0.3,0.6-0.4,0.9c-0.1,0.3-0.1,0.7,0,1c0,0.2,0.1,0.3,0.1,0.5c0.1,0.2,0.1,0.3,0.2,0.4 c0.1,0.1,0.2,0.3,0.3,0.4c1,1,2.5,1,3.5,0c0,0,0,0,0,0c0.1-0.1,0.2-0.2,0.3-0.4c0.1-0.1,0.2-0.3,0.2-0.4c0.1-0.1,0.1-0.3,0.1-0.5 C54.1,253.7,54.1,253.3,54,253z"/><path fill="#ffcd29" d="M202.5,8.2c-4.1-0.8-7.2-4-8-8c0-0.1-0.1-0.2-0.2-0.2c-0.1,0-0.1,0.1-0.2,0.2c-0.8,4.1-4,7.2-8,8 c-0.1,0-0.2,0.1-0.2,0.2c0,0.1,0.1,0.1,0.2,0.2c4.1,0.8,7.2,4,8,8c0,0.1,0.1,0.2,0.2,0.2c0.1,0,0.1-0.1,0.2-0.2c0.8-4.1,4-7.2,8-8 c0.1,0,0.2-0.1,0.2-0.2C202.6,8.2,202.5,8.2,202.5,8.2z"/><path fill="#231f20" d="M65.1,50.5H39.4c-1.4,0-2.5-1.1-2.5-2.5c0-0.4,0.1-0.7,0.2-1c0.6-1.3,1.4-2.5,2.4-3.5L64.1,19 c1-1,2.2-1.8,3.5-2.4c1.3-0.6,2.7,0,3.3,1.2c0.1,0.3,0.2,0.7,0.2,1v25.6C71,47.8,68.4,50.5,65.1,50.5z M44.6,45.5h20.5 c0.5,0,1-0.4,1-1V24.1L44.6,45.5z"/><path fill="#231f20" d="M155.6,94.3H63.5c-1.4,0-2.5-1.1-2.5-2.5s1.1-2.5,2.5-2.5h92.1c1.4,0,2.5,1.1,2.5,2.5S157,94.3,155.6,94.3z"/><path fill="#231f20" d="M132.6,80.7H86.5c-1.4,0-2.5-1.1-2.5-2.5s1.1-2.5,2.5-2.5h46.1c1.4,0,2.5,1.1,2.5,2.5S134,80.7,132.6,80.7z"/><path fill="#231f20" d="M155.6,107.8H63.5c-1.4,0-2.5-1.1-2.5-2.5s1.1-2.5,2.5-2.5h92.1c1.4,0,2.5,1.1,2.5,2.5S157,107.8,155.6,107.8z"/><path fill="#231f20" d="M155.6,121.3H63.5c-1.4,0-2.5-1.1-2.5-2.5s1.1-2.5,2.5-2.5h92.1c1.4,0,2.5,1.1,2.5,2.5S157,121.3,155.6,121.3z"/><path fill="#231f20" d="M155.6,134.9H63.5c-1.4,0-2.5-1.1-2.5-2.5s1.1-2.5,2.5-2.5h92.1c1.4,0,2.5,1.1,2.5,2.5S157,134.9,155.6,134.9z"/><path fill="#231f20" d="M146.4,148.4h-83c-1.4,0-2.5-1.1-2.5-2.5s1.1-2.5,2.5-2.5h83c1.4,0,2.5,1.1,2.5,2.5S147.8,148.4,146.4,148.4 L146.4,148.4z"/><path fill="#231f20" d="M140.5,161.9h-77c-1.4,0-2.5-1.1-2.5-2.5s1.1-2.5,2.5-2.5h77c1.4,0,2.5,1.1,2.5,2.5S141.8,161.9,140.5,161.9z"/><path fill="#231f20" d="M138.5,175.5h-75c-1.4,0-2.5-1.1-2.5-2.5s1.1-2.5,2.5-2.5h75c1.4,0,2.5,1.1,2.5,2.5S139.8,175.5,138.5,175.5z"/><path fill="#231f20" d="M138.5,189h-75c-1.4,0-2.5-1.1-2.5-2.5s1.1-2.5,2.5-2.5h75c1.4,0,2.5,1.1,2.5,2.5S139.8,189,138.5,189z"/><path fill="#231f20" d="M223.7,71.1c-0.8,0-1.5-0.4-2-1c-0.1-0.1-0.2-0.2-0.3-0.3l-10.2-5.9c-0.1-0.1-0.2-0.1-0.4-0.1 c-1.4-0.2-2.4-1.4-2.2-2.8c0-0.3,0.1-0.7,0.3-1l2-3.5c2.8-4.7,8.8-6.2,13.4-3.5c4.6,2.7,6.2,8.6,3.6,13.3l-2,3.5 c-0.4,0.7-1.2,1.2-2,1.2C223.8,71.1,223.7,71.1,223.7,71.1z M214.6,60.1l8.3,4.8l0.6-1.1c1.3-2.3,0.5-5.2-1.8-6.6 c-2.3-1.3-5.2-0.5-6.5,1.7L214.6,60.1z"/><path fill="#231f20" d="M208.2,117.4c-0.4,0-0.9-0.1-1.2-0.3l-1.7-1c-1.2-0.7-1.6-2.2-0.9-3.4c0.6-1,1.8-1.5,2.9-1.1l17.9-31 c2-3.5,0.8-8.1-2.7-10.1l-12.5-7.2c-1.2-0.7-1.6-2.2-0.9-3.4c0.7-1.2,2.2-1.6,3.4-0.9l12.5,7.2c5.9,3.4,8,11,4.5,17l-19.1,33.1 C209.9,116.9,209.1,117.4,208.2,117.4L208.2,117.4z"/><path fill="#231f20" d="M224.5,89.1c-0.4,0-0.9-0.1-1.2-0.3l-6.6-3.8c-1.2-0.7-1.6-2.2-0.9-3.4l7.6-13.2c0.7-1.2,2.2-1.6,3.4-0.9 c0.2,0.1,0.3,0.2,0.5,0.3c4.2,3.9,5.1,10.3,2.2,15.2l-2.8,4.8C226.2,88.6,225.4,89.1,224.5,89.1z M221.3,81.9l2.3,1.3l1.5-2.6 c1.1-1.9,1.3-4.2,0.6-6.2L221.3,81.9z"/><path fill="#231f20" d="M148.1,189c-2.3,0-4.2-1.9-4.2-4.2c0-0.2,0-0.4,0-0.6l2.1-15.2c0.2-1.4,1.5-2.3,2.8-2.1c0.3,0,0.6,0.2,0.9,0.3 l12.7,7.3c1.2,0.7,1.6,2.2,0.9,3.4c-0.2,0.3-0.4,0.5-0.6,0.7l-12.1,9.4C150,188.7,149.1,189,148.1,189z M150.6,173.4l-1.3,9.5 l7.6-5.9L150.6,173.4z"/><path fill="#231f20" d="M167.4,169.3c-1,0-2.1-0.3-3-0.8l0,0l-10.2-5.9c-2.9-1.7-3.8-5.3-2.2-8.2l53.5-92.6c1.7-2.9,5.3-3.8,8.2-2.2 c0,0,0,0,0,0l10.2,5.9c2.9,1.7,3.8,5.3,2.2,8.2l-53.5,92.6C171.5,168.1,169.5,169.3,167.4,169.3z M166.9,164.1 c0.5,0.3,1.1,0.1,1.3-0.4l53.5-92.6c0.3-0.5,0.1-1.1-0.4-1.3l-10.2-5.9c-0.5-0.3-1.1-0.1-1.3,0.4c0,0,0,0,0,0l-53.5,92.6 c-0.3,0.5-0.1,1.1,0.4,1.3L166.9,164.1z"/><path fill="#231f20" d="M161.3,179.2c-0.4,0-0.9-0.1-1.2-0.3l-12.7-7.3c-1.2-0.7-1.6-2.2-0.9-3.4l5.8-10c0.7-1.2,2.2-1.6,3.4-0.9 c0.3,0.2,0.6,0.4,0.8,0.7c0.1,0.1,0.2,0.2,0.3,0.3l10.2,5.9l0,0c0.1,0.1,0.2,0.1,0.4,0.1c1.4,0.2,2.4,1.4,2.2,2.8 c0,0.3-0.1,0.7-0.3,1l-5.8,10C163,178.7,162.2,179.2,161.3,179.2L161.3,179.2z M152,168.5l8.3,4.8l3.1-5.4l-8.3-4.8L152,168.5z"/></svg>