<svg xmlns="http://www.w3.org/2000/svg"  viewBox="0 0 256 256" width="512px" height="512px"><path fill="#acdef9" d="M213.1,68.9c-15.2,0-27.5-12.3-27.5-27.5c0-4.5,1.1-8.9,3.2-12.9H28.5c-7.2,0-13.1,5.9-13.1,13.1v174 c0,7.2,5.9,13.1,13.1,13.1h180.6c7.2,0,13.1-5.9,13.1-13.1V67.3C219.3,68.4,216.2,68.9,213.1,68.9z"/><path fill="#e9e9ea" d="M34.7,79.8H204c1.9,0,3.4,1.5,3.4,3.4v33.9c0,1.9-1.5,3.4-3.4,3.4H34.7c-1.9,0-3.4-1.5-3.4-3.4V83.2 C31.4,81.4,32.9,79.8,34.7,79.8z"/><path fill="#ea4647" d="M34.7,146.4h40.2c1.9,0,3.4,1.5,3.4,3.4v16.7c0,1.9-1.5,3.4-3.4,3.4H34.7c-1.9,0-3.4-1.5-3.4-3.4v-16.7 C31.4,147.9,32.9,146.4,34.7,146.4z"/><path fill="#ffcd29" d="M99.3,146.4h40.2c1.9,0,3.4,1.5,3.4,3.4v16.7c0,1.9-1.5,3.4-3.4,3.4H99.3c-1.9,0-3.4-1.5-3.4-3.4v-16.7 C95.9,147.9,97.4,146.4,99.3,146.4z"/><path fill="#6dcc6d" d="M163.8,146.4H204c1.9,0,3.4,1.5,3.4,3.4v16.7c0,1.9-1.5,3.4-3.4,3.4h-40.2c-1.9,0-3.4-1.5-3.4-3.4v-16.7 C160.4,147.9,161.9,146.4,163.8,146.4z"/><circle cx="213.1" cy="41.3" r="27.5" fill="#ea4647"/><path fill="#55acd5" d="M185.5,41.3c0-4.5,1.1-8.9,3.2-12.9H28.5c-7.2,0-13.1,5.9-13.1,13.1v13.3h173.7 C186.8,50.8,185.5,46.1,185.5,41.3z"/><path fill="#ffcd29" d="M88.4,246.7h-1.8v-1.8c0-1.4-1.1-2.5-2.5-2.5s-2.5,1.1-2.5,2.5v1.8h-1.8c-1.4,0-2.5,1.1-2.5,2.5 s1.1,2.5,2.5,2.5h1.8v1.8c0,1.4,1.1,2.5,2.5,2.5s2.5-1.1,2.5-2.5v-1.8h1.8c1.4,0,2.5-1.1,2.5-2.5S89.8,246.7,88.4,246.7L88.4,246.7 z"/><path fill="#ea4647" d="M184.1,2c0-0.2-0.1-0.3-0.1-0.5c-0.1-0.1-0.1-0.3-0.2-0.4c-0.1-0.1-0.2-0.3-0.3-0.4c-1-0.9-2.5-0.9-3.5,0 c-0.1,0.1-0.2,0.2-0.3,0.4c-0.1,0.1-0.2,0.3-0.2,0.4c-0.1,0.2-0.1,0.3-0.1,0.5c0,0.2-0.1,0.3-0.1,0.5c0,0.2,0,0.3,0.1,0.5 c0,0.2,0.1,0.3,0.1,0.5c0.1,0.2,0.1,0.3,0.2,0.4c0.1,0.1,0.2,0.3,0.3,0.4c1,1,2.5,1,3.5,0c0,0,0,0,0,0c0.1-0.1,0.2-0.2,0.3-0.4 c0.1-0.1,0.2-0.3,0.2-0.4c0.1-0.1,0.1-0.3,0.1-0.5c0-0.2,0-0.3,0.1-0.5C184.1,2.3,184.1,2.1,184.1,2z"/><path fill="#6dcc6d" d="M64.7,241.3c0-0.2-0.1-0.3-0.1-0.5c-0.1-0.1-0.1-0.3-0.2-0.4c-0.1-0.1-0.2-0.3-0.3-0.4c-1-0.9-2.5-0.9-3.5,0 c-0.1,0.1-0.2,0.2-0.3,0.4c-0.2,0.3-0.3,0.6-0.4,0.9c-0.1,0.3-0.1,0.7,0,1c0,0.2,0.1,0.3,0.1,0.5c0.1,0.2,0.1,0.3,0.2,0.4 c0.1,0.1,0.2,0.3,0.3,0.4c1,1,2.5,1,3.5,0c0,0,0,0,0,0c0.1-0.1,0.2-0.2,0.3-0.4c0.1-0.1,0.2-0.3,0.2-0.4c0.1-0.1,0.1-0.3,0.1-0.5 C64.7,242,64.7,241.6,64.7,241.3z"/><path fill="#55acd5" d="M164.9,13.1c-3.3-0.6-5.9-3.2-6.6-6.6c0-0.1-0.1-0.1-0.2-0.1c-0.1,0-0.1,0.1-0.1,0.1c-0.6,3.3-3.2,5.9-6.6,6.6 c-0.1,0-0.1,0.1-0.1,0.2c0,0.1,0.1,0.1,0.1,0.1c3.3,0.6,5.9,3.2,6.6,6.6c0,0.1,0.1,0.1,0.2,0.1c0.1,0,0.1-0.1,0.1-0.1 c0.6-3.3,3.2-5.9,6.6-6.6c0.1,0,0.1-0.1,0.1-0.2C165,13.1,165,13.1,164.9,13.1z"/><path fill="#231f20" d="M209.1,231.2H28.5c-8.6,0-15.6-7-15.6-15.6v-174c0-8.6,7-15.6,15.6-15.6h160.2c1.4,0,2.5,1.1,2.5,2.5 c0,0.4-0.1,0.8-0.3,1.2c-1.9,3.6-2.9,7.6-2.9,11.7c0,13.8,11.2,25,25.1,25c2.8,0,5.6-0.5,8.3-1.4c1.3-0.5,2.7,0.2,3.2,1.5 c0.1,0.3,0.1,0.5,0.1,0.8v148.3C224.7,224.2,217.7,231.2,209.1,231.2z M28.5,31c-5.9,0-10.6,4.8-10.6,10.6v174 c0,5.9,4.8,10.6,10.6,10.6h180.6c5.9,0,10.6-4.8,10.6-10.6V70.7c-16.2,3.7-32.3-6.5-35.9-22.7c-1.3-5.7-0.9-11.6,1.1-17H28.5z"/><path fill="#231f20" d="M189.1,57.4H15.4c-1.4,0-2.5-1.1-2.5-2.5V41.6c0-8.6,7-15.6,15.6-15.6h160.2c1.4,0,2.5,1.1,2.5,2.5 c0,0.4-0.1,0.8-0.3,1.2c-1.9,3.6-2.9,7.6-2.9,11.7c0,4.3,1.1,8.6,3.3,12.3c0.7,1.2,0.3,2.7-0.9,3.4C190,57.3,189.5,57.4,189.1,57.4 L189.1,57.4z M17.9,52.4h167.3c-2.7-6.9-2.8-14.5-0.3-21.4H28.5c-5.9,0-10.6,4.8-10.6,10.6L17.9,52.4z"/><path fill="#231f20" d="M31.4,44.2c-0.2,0-0.3,0-0.5,0c-0.2,0-0.3-0.1-0.5-0.1c-0.1-0.1-0.3-0.1-0.4-0.2c-0.1-0.1-0.3-0.2-0.4-0.3 c-0.1-0.1-0.2-0.3-0.3-0.4c-0.1-0.1-0.2-0.3-0.2-0.4c-0.1-0.1-0.1-0.3-0.1-0.5c0-0.2,0-0.3,0-0.5c0-0.2,0-0.3,0-0.5 c0.1-0.3,0.2-0.6,0.4-0.9c0.1-0.1,0.2-0.3,0.3-0.4c0.1-0.1,0.2-0.2,0.4-0.3c0.3-0.2,0.6-0.3,0.9-0.4c0.3-0.1,0.7-0.1,1,0 c0.3,0.1,0.6,0.2,0.9,0.4c0.1,0.1,0.3,0.2,0.4,0.3c0.1,0.1,0.2,0.2,0.3,0.4c0.2,0.3,0.3,0.6,0.4,0.9c0,0.2,0,0.3,0,0.5 c0,0.7-0.3,1.3-0.7,1.8c-0.1,0.1-0.2,0.2-0.4,0.3c-0.1,0.1-0.3,0.2-0.4,0.2c-0.2,0.1-0.3,0.1-0.5,0.1 C31.7,44.2,31.5,44.2,31.4,44.2z"/><path fill="#231f20" d="M41,44.2c-1.4,0-2.5-1.1-2.5-2.5c0-0.7,0.3-1.3,0.7-1.8c0.1-0.1,0.2-0.2,0.4-0.3c0.1-0.1,0.3-0.2,0.4-0.2 c0.2-0.1,0.3-0.1,0.5-0.1c1.3-0.3,2.7,0.6,2.9,1.9c0,0.2,0.1,0.3,0.1,0.5C43.5,43.1,42.4,44.2,41,44.2C41,44.2,41,44.2,41,44.2z"/><path fill="#231f20" d="M50.7,44.2c-0.7,0-1.3-0.3-1.8-0.7c-0.1-0.1-0.2-0.2-0.3-0.4c-0.1-0.1-0.2-0.3-0.2-0.4 c-0.1-0.1-0.1-0.3-0.1-0.5c0-0.2,0-0.3,0-0.5c0-1.4,1.1-2.5,2.5-2.5c0.2,0,0.3,0,0.5,0.1c0.3,0.1,0.6,0.2,0.9,0.4 c0.1,0.1,0.3,0.2,0.4,0.3c0.5,0.5,0.7,1.1,0.7,1.8c0,0.2,0,0.3,0,0.5c0,0.2-0.1,0.3-0.1,0.5c-0.1,0.2-0.1,0.3-0.2,0.4 c-0.1,0.1-0.2,0.3-0.3,0.4c-0.1,0.1-0.2,0.2-0.4,0.3c-0.1,0.1-0.3,0.2-0.4,0.2c-0.2,0.1-0.3,0.1-0.5,0.1 C51,44.2,50.8,44.2,50.7,44.2z"/><path fill="#231f20" d="M109.1,136.6c-1.4,0-2.5-1.1-2.5-2.5c0-0.7,0.3-1.3,0.7-1.8c1-0.9,2.5-0.9,3.5,0c0.1,0.1,0.2,0.2,0.3,0.4 c0.2,0.3,0.3,0.6,0.4,0.9c0,0.2,0,0.3,0.1,0.5C111.6,135.4,110.5,136.6,109.1,136.6C109.2,136.6,109.1,136.6,109.1,136.6z"/><path fill="#231f20" d="M118.8,136.6c-0.7,0-1.3-0.3-1.8-0.7c-0.1-0.1-0.2-0.2-0.3-0.4c-0.2-0.3-0.3-0.6-0.4-0.9c0-0.2,0-0.3-0.1-0.5 c0-0.7,0.3-1.3,0.7-1.8c1-0.9,2.5-0.9,3.5,0c1,1,1,2.6,0,3.5C120.1,136.3,119.5,136.6,118.8,136.6z"/><path fill="#231f20" d="M128.4,136.6c-0.2,0-0.3,0-0.5-0.1c-0.2,0-0.3-0.1-0.5-0.1c-0.2-0.1-0.3-0.1-0.4-0.2c-0.1-0.1-0.3-0.2-0.4-0.3 c-1-1-1-2.6,0-3.5c0.1-0.1,0.2-0.2,0.4-0.3c1-0.7,2.3-0.5,3.2,0.3c1,1,1,2.6,0,3.5C129.7,136.3,129.1,136.6,128.4,136.6 L128.4,136.6z"/><path fill="#231f20" d="M175.8,44.2H80.3c-1.4,0-2.5-1.1-2.5-2.5s1.1-2.5,2.5-2.5h95.5c1.4,0,2.5,1.1,2.5,2.5S177.2,44.2,175.8,44.2z"/><path fill="#231f20" d="M213.1,71.4c-16.6,0-30-13.5-30-30s13.5-30,30-30s30,13.5,30,30C243.1,57.9,229.7,71.4,213.1,71.4z M213.1,16.3c-13.8,0-25,11.2-25,25s11.2,25,25,25s25-11.2,25-25C238.1,27.5,226.9,16.3,213.1,16.3L213.1,16.3z"/><path fill="#231f20" d="M213.1,55.9c-1.4,0-2.5-1.1-2.5-2.5V29.3c0-1.4,1.1-2.5,2.5-2.5s2.5,1.1,2.5,2.5v24.2 C215.6,54.8,214.5,55.9,213.1,55.9z"/><path fill="#231f20" d="M225.2,43.8H201c-1.4,0-2.5-1.1-2.5-2.5s1.1-2.5,2.5-2.5h24.2c1.4,0,2.5,1.1,2.5,2.5S226.5,43.8,225.2,43.8 L225.2,43.8z"/><path fill="#231f20" d="M204,123H34.7c-3.2,0-5.9-2.6-5.9-5.9V83.2c0-3.2,2.6-5.9,5.9-5.9H204c3.2,0,5.9,2.6,5.9,5.9v33.9 C209.8,120.4,207.2,123,204,123z M34.7,82.3c-0.5,0-0.9,0.4-0.9,0.9v33.9c0,0.5,0.4,0.9,0.9,0.9H204c0.5,0,0.9-0.4,0.9-0.9V83.2 c0-0.5-0.4-0.9-0.9-0.9H34.7z"/><path fill="#231f20" d="M74.9,172.4H34.7c-3.2,0-5.9-2.6-5.9-5.9v-16.7c0-3.2,2.6-5.9,5.9-5.9h40.2c3.2,0,5.9,2.6,5.9,5.9v16.7 C80.8,169.7,78.2,172.4,74.9,172.4z M34.7,148.9c-0.5,0-0.9,0.4-0.9,0.9v16.7c0,0.5,0.4,0.9,0.9,0.9h40.2c0.5,0,0.9-0.4,0.9-0.9 v-16.7c0-0.5-0.4-0.9-0.9-0.9L34.7,148.9z"/><path fill="#231f20" d="M139.5,172.4H99.3c-3.2,0-5.9-2.6-5.9-5.9v-16.7c0-3.2,2.6-5.9,5.9-5.9h40.2c3.2,0,5.9,2.6,5.9,5.9v16.7 C145.3,169.7,142.7,172.4,139.5,172.4z M99.3,148.9c-0.5,0-0.9,0.4-0.9,0.9v16.7c0,0.5,0.4,0.9,0.9,0.9h40.2c0.5,0,0.9-0.4,0.9-0.9 v-16.7c0-0.5-0.4-0.9-0.9-0.9L99.3,148.9z"/><path fill="#231f20" d="M204,172.4h-40.2c-3.2,0-5.9-2.6-5.9-5.9v-16.7c0-3.2,2.6-5.9,5.9-5.9H204c3.2,0,5.9,2.6,5.9,5.9v16.7 C209.8,169.7,207.2,172.4,204,172.4z M163.8,148.9c-0.5,0-0.9,0.4-0.9,0.9v16.7c0,0.5,0.4,0.9,0.9,0.9H204c0.5,0,0.9-0.4,0.9-0.9 v-16.7c0-0.5-0.4-0.9-0.9-0.9L163.8,148.9z"/><path fill="#231f20" d="M207.3,184.8h-46.9c-1.4,0-2.5-1.1-2.5-2.5s1.1-2.5,2.5-2.5h46.9c1.4,0,2.5,1.1,2.5,2.5 S208.7,184.8,207.3,184.8z"/><path fill="#231f20" d="M207.3,196.9h-46.9c-1.4,0-2.5-1.1-2.5-2.5s1.1-2.5,2.5-2.5h46.9c1.4,0,2.5,1.1,2.5,2.5 S208.7,196.9,207.3,196.9z"/><path fill="#231f20" d="M207.3,208.9h-46.9c-1.4,0-2.5-1.1-2.5-2.5s1.1-2.5,2.5-2.5h46.9c1.4,0,2.5,1.1,2.5,2.5 S208.7,208.9,207.3,208.9z"/><path fill="#231f20" d="M142.8,184.8H95.9c-1.4,0-2.5-1.1-2.5-2.5s1.1-2.5,2.5-2.5h46.9c1.4,0,2.5,1.1,2.5,2.5 S144.2,184.8,142.8,184.8z"/><path fill="#231f20" d="M142.8,196.9H95.9c-1.4,0-2.5-1.1-2.5-2.5s1.1-2.5,2.5-2.5h46.9c1.4,0,2.5,1.1,2.5,2.5 S144.2,196.9,142.8,196.9z"/><path fill="#231f20" d="M142.8,208.9H95.9c-1.4,0-2.5-1.1-2.5-2.5s1.1-2.5,2.5-2.5h46.9c1.4,0,2.5,1.1,2.5,2.5 S144.2,208.9,142.8,208.9z"/><path fill="#231f20" d="M78.3,184.8H31.4c-1.4,0-2.5-1.1-2.5-2.5s1.1-2.5,2.5-2.5h46.9c1.4,0,2.5,1.1,2.5,2.5S79.7,184.8,78.3,184.8z"/><path fill="#231f20" d="M78.3,196.9H31.4c-1.4,0-2.5-1.1-2.5-2.5s1.1-2.5,2.5-2.5h46.9c1.4,0,2.5,1.1,2.5,2.5S79.7,196.9,78.3,196.9z"/><path fill="#231f20" d="M78.3,208.9H31.4c-1.4,0-2.5-1.1-2.5-2.5s1.1-2.5,2.5-2.5h46.9c1.4,0,2.5,1.1,2.5,2.5S79.7,208.9,78.3,208.9z"/></svg>