<svg xmlns="http://www.w3.org/2000/svg"  viewBox="0 0 256 256" width="512px" height="512px"><path fill="#6d6c6b" d="M232.3,34.7c-0.2,0-8.4,0-21.6,0v148.8H45.4V34.7c-13.1,0-21.4,0-21.6,0l0,0c-5.9,0.6-10.5,5.5-10.5,11.5 v155.7c0,6.4,5.2,11.5,11.6,11.6h206.4c6.4,0,11.5-5.2,11.6-11.6V46.2C242.8,40.5,239,35.6,232.3,34.7z"/><rect width="51.1" height="29.8" x="102.5" y="213.5" fill="#e9e9ea"/><path fill="#e9e9ea" d="M90.1,243.2h75.7c2.8,0,5.1,2.3,5.1,5.1l0,0c0,2.8-2.3,5.1-5.1,5.1H90.1c-2.8,0-5.1-2.3-5.1-5.1l0,0 C85,245.5,87.3,243.2,90.1,243.2z"/><path fill="#e9e9ea" d="M13.2,183.4v18.5c0,6.4,5.2,11.5,11.6,11.6h206.4c6.4,0,11.5-5.2,11.6-11.6v-18.5H13.2z"/><path fill="#acdef9" d="M45.4,45.2H24.8c-0.6,0-1,0.5-1.1,1.1v137.2h21.6V45.2z"/><path fill="#acdef9" d="M231.2,45.2h-20.6v138.3h21.6V46.2C232.3,45.6,231.8,45.2,231.2,45.2z"/><path fill="#55acd5" d="M45.4,45.2H24.8c-0.6,0-1,0.5-1.1,1.1v10.3h21.6V45.2z"/><path fill="#55acd5" d="M231.2,45.2h-20.6v11.3h21.6V46.2C232.3,45.6,231.8,45.2,231.2,45.2z"/><path fill="#e9e9ea" d="M210.6,183.4V15.1c0-6.9-5.6-12.6-12.6-12.6H57.9c-6.9,0-12.6,5.6-12.6,12.6v168.3H210.6z"/><path fill="#6d6c6b" d="M198.1,2.5H57.9c-6.9,0-12.6,5.6-12.6,12.6v12.8h165.3V15.1C210.6,8.1,205,2.5,198.1,2.5z"/><path fill="#55acd5" d="M68.8,104.2h22.6c2.8,0,5.1,2.3,5.1,5.1l0,0c0,2.8-2.3,5.1-5.1,5.1H68.8c-2.8,0-5.1-2.3-5.1-5.1l0,0 C63.7,106.5,66,104.2,68.8,104.2z"/><path fill="#55acd5" d="M116.2,104.2h22.6c2.8,0,5.1,2.3,5.1,5.1l0,0c0,2.8-2.3,5.1-5.1,5.1h-22.6c-2.8,0-5.1-2.3-5.1-5.1l0,0 C111,106.5,113.3,104.2,116.2,104.2z"/><path fill="#55acd5" d="M163.6,104.2h22.6c2.8,0,5.1,2.3,5.1,5.1l0,0c0,2.8-2.3,5.1-5.1,5.1h-22.6c-2.8,0-5.1-2.3-5.1-5.1l0,0 C158.4,106.5,160.7,104.2,163.6,104.2z"/><rect width="165.3" height="59" x="45.4" y="28" fill="#ffcd29"/><path fill="#fdad2c" d="M152.6,49.8c-22.5,4-39.7,15.9-43,37.2h101V28h-31.8C176.6,36.6,170.2,46.7,152.6,49.8z"/><path fill="#231f20" d="M231.2,216H24.8c-7.8,0-14-6.3-14.1-14.1V46.2c0-7.3,5.6-13.3,12.8-14c0.2,0,0.4,0,21.8-0.1l0,0 c1.4,0,2.5,1.1,2.5,2.5v146.3h160.3V34.7c0-1.4,1.1-2.5,2.5-2.5l0,0c21.5,0,21.6,0,21.8,0c0,0,0.1,0,0.1,0c7.6,1,12.7,6.7,12.7,14 v155.7C245.3,209.7,239,216,231.2,216z M23.9,37.2c-4.6,0.5-8.2,4.4-8.2,9v155.7c0,5,4.1,9.1,9.1,9.1h206.4c5,0,9.1-4.1,9.1-9.1 V46.2c0-4.8-3.1-8.3-8.2-9c-0.8,0-4.9,0-18.9,0v146.3c0,1.4-1.1,2.5-2.5,2.5H45.4c-1.4,0-2.5-1.1-2.5-2.5V37.2 C28.4,37.2,24.5,37.2,23.9,37.2z"/><path fill="#55acd5" d="M193.8,227H192v-1.8c0-1.4-1.1-2.5-2.5-2.5s-2.5,1.1-2.5,2.5v1.8h-1.8c-1.4,0-2.5,1.1-2.5,2.5s1.1,2.5,2.5,2.5 h1.8v1.8c0,1.4,1.1,2.5,2.5,2.5s2.5-1.1,2.5-2.5V232h1.8c1.4,0,2.5-1.1,2.5-2.5S195.2,227,193.8,227z"/><path fill="#6dcc6d" d="M230.1,17c0-0.2-0.1-0.3-0.1-0.5c-0.1-0.1-0.1-0.3-0.2-0.4c-0.1-0.1-0.2-0.3-0.3-0.4c-1-0.9-2.5-0.9-3.5,0 c-0.1,0.1-0.2,0.2-0.3,0.4c-0.2,0.3-0.3,0.6-0.4,0.9c-0.1,0.3-0.1,0.7,0,1c0,0.2,0.1,0.3,0.1,0.5c0.1,0.2,0.1,0.3,0.2,0.4 c0.1,0.1,0.2,0.3,0.3,0.4c1,1,2.5,1,3.5,0c0,0,0,0,0,0c0.1-0.1,0.2-0.2,0.3-0.4c0.1-0.1,0.2-0.3,0.2-0.4c0.1-0.1,0.1-0.3,0.1-0.5 C230.1,17.6,230.1,17.3,230.1,17z"/><path fill="#ffcd29" d="M209.1,247c0-0.2-0.1-0.3-0.1-0.5c-0.1-0.1-0.1-0.3-0.2-0.4c-0.1-0.1-0.2-0.3-0.3-0.4c-1-0.9-2.5-0.9-3.5,0 c-0.1,0.1-0.2,0.2-0.3,0.4c-0.2,0.3-0.3,0.6-0.4,0.9c-0.1,0.3-0.1,0.7,0,1c0,0.2,0.1,0.3,0.1,0.5c0.1,0.2,0.1,0.3,0.2,0.4 c0.1,0.1,0.2,0.3,0.3,0.4c1,1,2.5,1,3.5,0c0,0,0,0,0,0c0.1-0.1,0.2-0.2,0.3-0.4c0.1-0.1,0.2-0.3,0.2-0.4c0.1-0.1,0.1-0.3,0.1-0.5 C209.1,247.6,209.1,247.3,209.1,247z"/><path fill="#ea4647" d="M33.9,15.1c-3.3-0.6-5.9-3.2-6.6-6.6c0-0.1-0.1-0.1-0.2-0.1c-0.1,0-0.1,0.1-0.1,0.1c-0.6,3.3-3.2,5.9-6.6,6.6 c-0.1,0-0.1,0.1-0.1,0.2c0,0.1,0.1,0.1,0.1,0.1c3.3,0.6,5.9,3.2,6.6,6.6c0,0.1,0.1,0.1,0.2,0.1c0.1,0,0.1-0.1,0.1-0.1 c0.6-3.3,3.2-5.9,6.6-6.6c0.1,0,0.1-0.1,0.1-0.2C34,15.1,34,15.1,33.9,15.1z"/><path fill="#231f20" d="M153.5,245.7h-51.1c-1.4,0-2.5-1.1-2.5-2.5v-29.8c0-1.4,1.1-2.5,2.5-2.5h51.1c1.4,0,2.5,1.1,2.5,2.5v29.8 C156,244.6,154.9,245.7,153.5,245.7z M105,240.7H151V216H105V240.7z"/><path fill="#231f20" d="M128,205.6c-4.2,0-7.6-3.4-7.6-7.6s3.4-7.6,7.6-7.6c4.2,0,7.6,3.4,7.6,7.6l0,0 C135.6,202.1,132.2,205.6,128,205.6z M128,195.3c-1.5,0-2.6,1.2-2.6,2.6s1.2,2.6,2.6,2.6c1.5,0,2.6-1.2,2.6-2.6l0,0 C130.6,196.5,129.5,195.3,128,195.3L128,195.3z"/><path fill="#231f20" d="M165.9,256H90.1c-4.2,0-7.6-3.4-7.6-7.6c0-4.2,3.4-7.6,7.6-7.6h75.7c4.2,0,7.6,3.4,7.6,7.6 C173.5,252.6,170.1,256,165.9,256z M90.1,245.7c-1.5,0-2.6,1.2-2.6,2.6c0,1.5,1.2,2.6,2.6,2.6h75.7c1.5,0,2.6-1.2,2.6-2.6 c0-1.5-1.2-2.6-2.6-2.6H90.1z"/><path fill="#231f20" d="M60.7,17.7c-1.4,0-2.5-1.1-2.5-2.5c0-0.2,0-0.3,0-0.5c0-0.2,0.1-0.3,0.1-0.5c0.1-0.2,0.1-0.3,0.2-0.4 c0.1-0.1,0.2-0.3,0.3-0.4c0.6-0.6,1.4-0.8,2.3-0.7c0.3,0.1,0.6,0.2,0.9,0.4c0.1,0.1,0.3,0.2,0.4,0.3c0.1,0.1,0.2,0.2,0.3,0.4 c0.1,0.1,0.2,0.3,0.2,0.4c0.1,0.2,0.1,0.3,0.1,0.5c0,0.2,0.1,0.3,0,0.5c0,0.7-0.3,1.3-0.7,1.8c-0.1,0.1-0.2,0.2-0.4,0.3 c-0.1,0.1-0.3,0.2-0.4,0.2c-0.1,0.1-0.3,0.1-0.5,0.1C61,17.7,60.9,17.7,60.7,17.7z"/><path fill="#231f20" d="M69.9,17.7c-1.4,0-2.5-1.1-2.5-2.5c0-0.2,0-0.3,0.1-0.5c0-0.2,0.1-0.3,0.2-0.5c0.1-0.2,0.1-0.3,0.2-0.4 c0.2-0.3,0.4-0.5,0.7-0.7c0.1-0.1,0.3-0.2,0.4-0.2c0.1-0.1,0.3-0.1,0.5-0.1c0.3-0.1,0.7-0.1,1,0c0.2,0,0.3,0.1,0.5,0.1 c0.2,0.1,0.3,0.1,0.4,0.2c0.3,0.2,0.5,0.4,0.7,0.7c0.1,0.1,0.2,0.3,0.2,0.4c0.1,0.2,0.1,0.3,0.2,0.5c0,0.2,0,0.3,0,0.5 c0,0.7-0.3,1.3-0.7,1.8C71.2,17.4,70.6,17.7,69.9,17.7z"/><path fill="#231f20" d="M79.2,17.7c-0.2,0-0.3,0-0.5,0c-0.2,0-0.3-0.1-0.5-0.1c-0.2-0.1-0.3-0.1-0.4-0.2c-0.1-0.1-0.3-0.2-0.4-0.3 c-1-1-1-2.6,0-3.5c0.1-0.1,0.2-0.2,0.4-0.3c0.1-0.1,0.3-0.2,0.4-0.2c0.2-0.1,0.3-0.1,0.5-0.1c0.3-0.1,0.7-0.1,1,0 c0.2,0,0.3,0.1,0.5,0.1c0.2,0.1,0.3,0.1,0.4,0.2c0.1,0.1,0.3,0.2,0.4,0.3c0.5,0.5,0.7,1.1,0.7,1.8c0,0.2,0,0.3-0.1,0.5 c0,0.2-0.1,0.3-0.2,0.5c-0.1,0.2-0.1,0.3-0.2,0.4c-0.1,0.1-0.2,0.3-0.3,0.4c-0.1,0.1-0.2,0.2-0.4,0.3c-0.1,0.1-0.3,0.2-0.4,0.2 c-0.1,0.1-0.3,0.1-0.5,0.1C79.5,17.7,79.4,17.7,79.2,17.7z"/><path fill="#231f20" d="M181.2,17.7h-79.6c-1.4,0-2.5-1.1-2.5-2.5s1.1-2.5,2.5-2.5h79.6c1.4,0,2.5,1.1,2.5,2.5S182.5,17.7,181.2,17.7z"/><path fill="#231f20" d="M69.5,41h-9c-1.4,0-2.5-1.1-2.5-2.5s1.1-2.5,2.5-2.5h9c1.4,0,2.5,1.1,2.5,2.5S70.9,41,69.5,41z"/><path fill="#231f20" d="M80.1,155.2H63.7c-1.4,0-2.5-1.1-2.5-2.5s1.1-2.5,2.5-2.5h16.4c1.4,0,2.5,1.1,2.5,2.5S81.5,155.2,80.1,155.2z"/><path fill="#231f20" d="M96.5,143.1H63.7c-1.4,0-2.5-1.1-2.5-2.5s1.1-2.5,2.5-2.5h32.9c1.4,0,2.5,1.1,2.5,2.5S97.9,143.1,96.5,143.1z"/><path fill="#231f20" d="M96.5,130.9H63.7c-1.4,0-2.5-1.1-2.5-2.5c0-1.4,1.1-2.5,2.5-2.5h32.9c1.4,0,2.5,1.1,2.5,2.5 C99,129.8,97.9,130.9,96.5,130.9z"/><path fill="#231f20" d="M127.5,155.2H111c-1.4,0-2.5-1.1-2.5-2.5s1.1-2.5,2.5-2.5h16.4c1.4,0,2.5,1.1,2.5,2.5S128.9,155.2,127.5,155.2 z"/><path fill="#231f20" d="M143.9,143.1H111c-1.4,0-2.5-1.1-2.5-2.5s1.1-2.5,2.5-2.5h32.9c1.4,0,2.5,1.1,2.5,2.5S145.3,143.1,143.9,143.1 z"/><path fill="#231f20" d="M143.9,130.9H111c-1.4,0-2.5-1.1-2.5-2.5c0-1.4,1.1-2.5,2.5-2.5h32.9c1.4,0,2.5,1.1,2.5,2.5 C146.4,129.8,145.3,130.9,143.9,130.9z"/><path fill="#231f20" d="M174.9,155.2h-16.4c-1.4,0-2.5-1.1-2.5-2.5s1.1-2.5,2.5-2.5h16.4c1.4,0,2.5,1.1,2.5,2.5 S176.2,155.2,174.9,155.2L174.9,155.2z"/><path fill="#231f20" d="M191.3,143.1h-32.9c-1.4,0-2.5-1.1-2.5-2.5s1.1-2.5,2.5-2.5h32.9c1.4,0,2.5,1.1,2.5,2.5 S192.7,143.1,191.3,143.1z"/><path fill="#231f20" d="M191.3,130.9h-32.9c-1.4,0-2.5-1.1-2.5-2.5c0-1.4,1.1-2.5,2.5-2.5h32.9c1.4,0,2.5,1.1,2.5,2.5 C193.8,129.8,192.7,130.9,191.3,130.9z"/><path fill="#231f20" d="M210.6,185.9H45.4c-1.4,0-2.5-1.1-2.5-2.5V15.1C42.9,6.8,49.6,0,57.9,0h140.1c8.3,0,15.1,6.8,15.1,15.1v168.3 C213.1,184.8,212,185.9,210.6,185.9C210.6,185.9,210.6,185.9,210.6,185.9z M47.9,180.9h160.3V15.1c0-5.6-4.5-10.1-10.1-10.1H57.9 c-5.6,0-10.1,4.5-10.1,10.1L47.9,180.9z"/><path fill="#231f20" d="M210.6,30.4H45.4c-1.4,0-2.5-1.1-2.5-2.5V15.1C42.9,6.8,49.6,0,57.9,0h140.1c8.3,0,15.1,6.8,15.1,15.1v12.8 C213.1,29.2,212,30.4,210.6,30.4C210.6,30.4,210.6,30.4,210.6,30.4z M47.9,25.4h160.3V15.1c0-5.6-4.5-10.1-10.1-10.1H57.9 c-5.6,0-10.1,4.5-10.1,10.1L47.9,25.4z"/><path fill="#231f20" d="M91.4,117H68.8c-4.2,0-7.6-3.4-7.6-7.6c0-4.2,3.4-7.6,7.6-7.6h22.6c4.2,0,7.6,3.4,7.6,7.6l0,0 C99,113.6,95.6,117,91.4,117z M68.8,106.7c-1.5,0-2.6,1.2-2.6,2.6c0,1.5,1.2,2.6,2.6,2.6h22.6c1.5,0,2.6-1.2,2.6-2.6 s-1.2-2.6-2.6-2.6c0,0,0,0,0,0H68.8z"/><path fill="#231f20" d="M138.8,117h-22.6c-4.2,0-7.6-3.4-7.6-7.6s3.4-7.6,7.6-7.6c0,0,0,0,0,0h22.6c4.2,0,7.6,3.4,7.6,7.6l0,0 C146.4,113.6,143,117,138.8,117z M116.2,106.7c-1.5,0-2.6,1.2-2.6,2.6s1.2,2.6,2.6,2.6c0,0,0,0,0,0h22.6c1.5,0,2.6-1.2,2.6-2.6 c0-1.5-1.2-2.6-2.6-2.6c0,0,0,0,0,0H116.2z"/><path fill="#231f20" d="M186.2,117h-22.6c-4.2,0-7.6-3.4-7.6-7.6c0-4.2,3.4-7.6,7.6-7.6h22.6c4.2,0,7.6,3.4,7.6,7.6l0,0 C193.8,113.6,190.4,117,186.2,117z M163.6,106.7c-1.5,0-2.6,1.2-2.6,2.6c0,1.5,1.2,2.6,2.6,2.6h22.6c1.5,0,2.6-1.2,2.6-2.6 c0-1.5-1.2-2.6-2.6-2.6H163.6z"/><path fill="#231f20" d="M210.6,89.5H45.4c-1.4,0-2.5-1.1-2.5-2.5V28c0-1.4,1.1-2.5,2.5-2.5h165.3c1.4,0,2.5,1.1,2.5,2.5v59 C213.1,88.4,212,89.5,210.6,89.5z M47.9,84.5h160.3v-54H47.9L47.9,84.5z"/><path fill="#231f20" d="M210.6,89.5h-101c-1.4,0-2.5-1.1-2.5-2.5c0-0.1,0-0.3,0-0.4c3.2-20.8,19.2-34.7,45-39.3l0.4,2.5l-0.4-2.5 c13.2-2.3,21.3-9.1,24.2-20c0.3-1.1,1.3-1.9,2.4-1.9h31.9c1.4,0,2.5,1.1,2.5,2.5v59C213.1,88.4,212,89.5,210.6,89.5 C210.6,89.5,210.6,89.5,210.6,89.5z M112.7,84.5h95.5v-54h-27.5c-2.8,8.6-9.9,18.6-27.6,21.8C130.8,56.2,116.6,67.6,112.7,84.5z"/><path fill="#231f20" d="M231.2,216H24.8c-7.8,0-14-6.3-14.1-14.1v-18.5c0-1.4,1.1-2.5,2.5-2.5h229.6c1.4,0,2.5,1.1,2.5,2.5v18.5 C245.3,209.7,239,216,231.2,216z M15.7,185.9v16c0,5,4.1,9.1,9.1,9.1h206.4c5,0,9.1-4.1,9.1-9.1v-16H15.7z"/><path fill="#231f20" d="M45.4,185.9H23.7c-1.4,0-2.5-1.1-2.5-2.5V46.2c0-2,1.6-3.5,3.6-3.6h20.6c1.4,0,2.5,1.1,2.5,2.5v138.3 C47.9,184.8,46.7,185.9,45.4,185.9z M26.2,180.9h16.6V47.7H26.2L26.2,180.9z"/><path fill="#231f20" d="M232.3,185.9h-21.6c-1.4,0-2.5-1.1-2.5-2.5V45.2c0-1.4,1.1-2.5,2.5-2.5h20.6c2,0,3.5,1.6,3.6,3.6v137.2 C234.8,184.8,233.7,185.9,232.3,185.9z M213.1,180.9h16.6V47.7h-16.6V180.9z M231.2,47.7L231.2,47.7z"/><path fill="#231f20" d="M45.4,59H23.7c-1.4,0-2.5-1.1-2.5-2.5V46.2c0-2,1.6-3.5,3.6-3.6h20.6c1.4,0,2.5,1.1,2.5,2.5v11.3 C47.9,57.9,46.7,59,45.4,59z M26.2,54h16.6v-6.3H26.2V54z"/><path fill="#231f20" d="M232.3,59h-21.6c-1.4,0-2.5-1.1-2.5-2.5V45.2c0-1.4,1.1-2.5,2.5-2.5h20.6c2,0,3.5,1.6,3.6,3.6v10.3 C234.8,57.9,233.7,59,232.3,59z M213.1,54h16.6v-6.3h-16.6V54z M231.2,47.7L231.2,47.7z"/></svg>