<svg xmlns="http://www.w3.org/2000/svg"  viewBox="0 0 256 256" width="512px" height="512px"><path fill="#acdef9" d="M37.7,28.5h180.6c7.3,0,13.1,5.9,13.1,13.1v174c0,7.3-5.9,13.1-13.1,13.1H37.7c-7.3,0-13.1-5.9-13.1-13.1v-174 C24.6,34.4,30.5,28.5,37.7,28.5z"/><circle cx="96.9" cy="199.7" r="9.3" fill="#6dcc6d"/><circle cx="128" cy="199.7" r="9.3" fill="#6dcc6d"/><circle cx="159.1" cy="199.7" r="9.3" fill="#6dcc6d"/><path fill="#55acd5" d="M218.3,28.5H37.7c-7.2,0-13.1,5.9-13.1,13.1v13.3h206.8V41.6C231.4,34.4,225.5,28.5,218.3,28.5z"/><circle cx="128" cy="112.8" r="41" fill="#ffcd29"/><path fill="#e9e9ea" d="M152.3,138.4l-11-2.8l-6.6-3.3l-2.2,6.4c-0.1,0.4-0.5,0.6-0.9,0.6h-6.8c-0.4,0-0.7-0.2-0.9-0.6l-2.2-6.4 l-6.6,3.3l-11,2.8c-2.1,0.5-3.7,2.2-4.1,4.4c15.9,14.8,40.6,14.7,56.3-0.3C155.8,140.4,154.3,138.9,152.3,138.4z"/><path fill="#6d6c6b" d="M113,103.8c0.3,0,0.6,0,0.9,0.1v-0.7c0-0.4,0.3-0.7,0.8-0.7c0.1,0,0.1,0,0.1,0c2.6,0.5,10.2,1.4,15.3-5 c0.3-0.3,0.7-0.4,1.1-0.1c0,0,0,0,0.1,0.1c1.2,1.2,4.3,3.5,10.1,3.7c0.4,0,0.7,0.3,0.7,0.7c0,0.1,0,0.1,0,0.2v1.9 c1.8-0.3,3.7,0.3,5,1.6V94.8c0-4.4-3.6-8.1-8.1-8.1c-1.5,0-2.9,0.4-4.1,1.2c-1.5-2.4-4.1-3.9-6.9-3.9h-4.1c-8,0-14.5,6.5-14.6,14.6 v6.5C110.3,104.2,111.6,103.8,113,103.8z"/><path fill="#f9d0b4" d="M143,103.8c-0.3,0-0.6,0-0.9,0.1c0,0.3,0,0.6,0,1v9.7c0,0.3,0,0.6,0,0.9c3.2,0.5,6.2-1.7,6.8-4.9 c0.5-3.2-1.7-6.2-4.9-6.8C143.7,103.8,143.3,103.8,143,103.8z"/><path fill="#f9d0b4" d="M113.9,114.5v-9.7c0-0.3,0-0.6,0-1c-3.2-0.5-6.3,1.6-6.8,4.8s1.6,6.3,4.8,6.8c0.7,0.1,1.3,0.1,2,0 C113.9,115.2,113.9,114.8,113.9,114.5z"/><path fill="#f9d0b4" d="M130.1,97.4c-5.2,6.5-12.8,5.6-15.3,5c-0.4-0.1-0.8,0.2-0.9,0.6c0,0,0,0.1,0,0.1v11.4 c0,7.8,6.3,14.1,14.1,14.1l0,0c7.8,0,14.1-6.3,14.1-14.1v-12.6c0-0.1,0-0.1,0-0.2c0-0.4-0.3-0.7-0.7-0.7c-5.9-0.2-9-2.5-10.1-3.7 C130.9,97,130.5,97,130.1,97.4C130.2,97.3,130.1,97.4,130.1,97.4z"/><path fill="#f9d0b4" d="M128,128.6L128,128.6c-2.2,0-4.3-0.5-6.3-1.5v5.2l2.2,6.4c0.1,0.4,0.5,0.6,0.9,0.6h6.8c0.4,0,0.7-0.2,0.9-0.6 l2.2-6.4v-5.4C132.7,128.1,130.3,128.6,128,128.6z"/><path fill="#55acd5" d="M97.6,246.7h-1.8v-1.8c0-1.4-1.1-2.5-2.5-2.5s-2.5,1.1-2.5,2.5v1.8h-1.8c-1.4,0-2.5,1.1-2.5,2.5 s1.1,2.5,2.5,2.5h1.8v1.8c0,1.4,1.1,2.5,2.5,2.5s2.5-1.1,2.5-2.5v-1.8h1.8c1.4,0,2.5-1.1,2.5-2.5S99,246.7,97.6,246.7z"/><path fill="#ea4647" d="M193.3,2c0-0.2-0.1-0.3-0.1-0.5c-0.1-0.1-0.1-0.3-0.2-0.4c-0.1-0.1-0.2-0.3-0.3-0.4c-1-0.9-2.5-0.9-3.5,0 c-0.1,0.1-0.2,0.2-0.3,0.4c-0.1,0.1-0.2,0.3-0.2,0.4c-0.1,0.2-0.1,0.3-0.1,0.5c0,0.2-0.1,0.3-0.1,0.5c0,0.2,0,0.3,0.1,0.5 c0,0.2,0.1,0.3,0.1,0.5c0.1,0.2,0.1,0.3,0.2,0.4c0.1,0.1,0.2,0.3,0.3,0.4c1,1,2.5,1,3.5,0c0,0,0,0,0,0c0.1-0.1,0.2-0.2,0.3-0.4 c0.1-0.1,0.2-0.3,0.2-0.4c0.1-0.1,0.1-0.3,0.1-0.5c0-0.2,0-0.3,0.1-0.5C193.3,2.3,193.3,2.1,193.3,2z"/><path fill="#6dcc6d" d="M73.9,241.3c0-0.2-0.1-0.3-0.1-0.5c-0.1-0.1-0.1-0.3-0.2-0.4c-0.1-0.1-0.2-0.3-0.3-0.4c-1-0.9-2.5-0.9-3.5,0 c-0.1,0.1-0.2,0.2-0.3,0.4c-0.2,0.3-0.3,0.6-0.4,0.9c-0.1,0.3-0.1,0.7,0,1c0,0.2,0.1,0.3,0.1,0.5c0.1,0.2,0.1,0.3,0.2,0.4 c0.1,0.1,0.2,0.3,0.3,0.4c1,1,2.5,1,3.5,0c0,0,0,0,0,0c0.1-0.1,0.2-0.2,0.3-0.4c0.1-0.1,0.2-0.3,0.2-0.4c0.1-0.1,0.1-0.3,0.1-0.5 C73.9,242,73.9,241.6,73.9,241.3z"/><path fill="#ffcd29" d="M174.1,13.1c-3.3-0.6-5.9-3.2-6.6-6.6c0-0.1-0.1-0.1-0.2-0.1c-0.1,0-0.1,0.1-0.1,0.1c-0.6,3.3-3.2,5.9-6.6,6.6 c-0.1,0-0.1,0.1-0.1,0.2c0,0.1,0.1,0.1,0.1,0.1c3.3,0.6,5.9,3.2,6.6,6.6c0,0.1,0.1,0.1,0.2,0.1c0.1,0,0.1-0.1,0.1-0.1 c0.6-3.3,3.2-5.9,6.6-6.6c0.1,0,0.1-0.1,0.1-0.2C174.3,13.1,174.2,13.1,174.1,13.1z"/><path fill="#231f20" d="M218.3,231.2H37.7c-8.6,0-15.6-7-15.6-15.6v-174c0-8.6,7-15.6,15.6-15.6h180.6c8.6,0,15.6,7,15.6,15.6v174 C233.9,224.2,226.9,231.2,218.3,231.2z M37.7,31c-5.9,0-10.6,4.8-10.6,10.6v174c0,5.9,4.8,10.6,10.6,10.6h180.6 c5.9,0,10.6-4.8,10.6-10.6v-174c0-5.9-4.8-10.6-10.6-10.6H37.7z"/><path fill="#231f20" d="M231.4,57.4H24.6c-1.4,0-2.5-1.1-2.5-2.5V41.6c0-8.6,7-15.6,15.6-15.6h180.6c8.6,0,15.6,7,15.6,15.6v13.3 C233.9,56.3,232.8,57.4,231.4,57.4z M27.1,52.4h201.8V41.6c0-5.9-4.8-10.6-10.6-10.6H37.7c-5.9,0-10.6,4.8-10.6,10.6L27.1,52.4z"/><path fill="#231f20" d="M40.6,44.2c-1.4,0-2.5-1.1-2.5-2.5c0-0.2,0-0.3,0-0.5c0.1-0.3,0.2-0.6,0.4-0.9c0.1-0.1,0.2-0.3,0.3-0.4 c0.6-0.6,1.4-0.8,2.3-0.7c0.2,0,0.3,0.1,0.5,0.1c0.2,0.1,0.3,0.1,0.4,0.2c0.1,0.1,0.3,0.2,0.4,0.3c0.1,0.1,0.2,0.2,0.3,0.4 c0.1,0.1,0.2,0.3,0.2,0.4c0.1,0.2,0.1,0.3,0.1,0.5c0,0.2,0,0.3,0,0.5c0,0.7-0.3,1.3-0.7,1.8c-0.1,0.1-0.2,0.2-0.4,0.3 c-0.1,0.1-0.3,0.2-0.4,0.2c-0.2,0.1-0.3,0.1-0.5,0.1C40.9,44.2,40.8,44.2,40.6,44.2z"/><path fill="#231f20" d="M50.2,44.2c-0.7,0-1.3-0.3-1.8-0.7c-0.1-0.1-0.2-0.2-0.3-0.4c-0.1-0.1-0.2-0.3-0.2-0.4 c-0.1-0.1-0.1-0.3-0.1-0.5c0-0.2,0-0.3,0-0.5c0-0.2,0-0.3,0-0.5c0.1-0.3,0.2-0.6,0.4-0.9c0.1-0.1,0.2-0.3,0.3-0.4 c0.6-0.6,1.4-0.8,2.3-0.7c0.2,0,0.3,0.1,0.5,0.1c0.2,0.1,0.3,0.1,0.4,0.2c0.1,0.1,0.3,0.2,0.4,0.3c0.1,0.1,0.2,0.2,0.3,0.4 c0.1,0.1,0.2,0.3,0.2,0.4c0.1,0.2,0.1,0.3,0.1,0.5c0,0.2,0,0.3,0.1,0.5c0,0.2,0,0.3-0.1,0.5c0,0.2-0.1,0.3-0.1,0.5 c-0.1,0.3-0.3,0.6-0.5,0.8c-0.1,0.1-0.2,0.2-0.4,0.3c-0.1,0.1-0.3,0.2-0.4,0.2c-0.1,0.1-0.3,0.1-0.5,0.1 C50.6,44.2,50.4,44.2,50.2,44.2z"/><path fill="#231f20" d="M59.9,44.2c-0.7,0-1.3-0.3-1.8-0.7c-0.1-0.1-0.2-0.2-0.3-0.4c-0.1-0.1-0.2-0.3-0.2-0.4 c-0.1-0.1-0.1-0.3-0.1-0.5c0-0.2,0-0.3,0-0.5c0-0.2,0-0.3,0-0.5c0-0.2,0.1-0.3,0.1-0.5c0.1-0.2,0.1-0.3,0.2-0.4 c0.1-0.1,0.2-0.3,0.3-0.4c0.1-0.1,0.2-0.2,0.4-0.3c0.3-0.2,0.6-0.3,0.9-0.4c0.8-0.2,1.7,0.1,2.3,0.7c0.1,0.1,0.2,0.2,0.3,0.4 c0.1,0.1,0.2,0.3,0.2,0.4c0.1,0.2,0.1,0.3,0.1,0.5c0,0.2,0,0.3,0,0.5C62.4,43.1,61.3,44.2,59.9,44.2C59.9,44.2,59.9,44.2,59.9,44.2 L59.9,44.2z"/><path fill="#231f20" d="M185,44.2H89.5c-1.4,0-2.5-1.1-2.5-2.5s1.1-2.5,2.5-2.5H185c1.4,0,2.5,1.1,2.5,2.5S186.4,44.2,185,44.2 L185,44.2z"/><path fill="#231f20" d="M142.1,169h-27.8c-1.4,0-2.5-1.1-2.5-2.5s1.1-2.5,2.5-2.5h27.8c1.4,0,2.5,1.1,2.5,2.5S143.5,169,142.1,169 L142.1,169z"/><path fill="#231f20" d="M155.8,180.3h-55.7c-1.4,0-2.5-1.1-2.5-2.5s1.1-2.5,2.5-2.5h55.7c1.4,0,2.5,1.1,2.5,2.5 S157.2,180.3,155.8,180.3L155.8,180.3z"/><path fill="#231f20" d="M143,118.1c-0.4,0-0.9,0-1.3-0.1c-1.3-0.2-2.2-1.3-2.1-2.6c0-0.3,0-0.5,0-0.8v-9.7c0-0.3,0-0.5,0-0.8 c-0.1-1.3,0.8-2.4,2.1-2.6c4.6-0.7,8.9,2.4,9.6,6.9c0.7,4.6-2.4,8.9-6.9,9.6C143.9,118,143.5,118.1,143,118.1L143,118.1z M144.6,106.7v6c1.7-0.9,2.3-2.9,1.4-4.6C145.7,107.5,145.2,107,144.6,106.7z"/><path fill="#231f20" d="M113,118.1c-4.6,0-8.4-3.7-8.5-8.3c0-4.6,3.7-8.4,8.3-8.5c0.5,0,1,0,1.5,0.1c1.3,0.2,2.2,1.3,2.1,2.6 c0,0.3,0,0.5,0,0.8v9.7c0,0.3,0,0.5,0,0.8c0.1,1.3-0.8,2.4-2.1,2.6C113.9,118,113.4,118,113,118.1z M111.4,106.7 c-1.7,0.9-2.3,2.9-1.4,4.6c0.3,0.6,0.8,1.1,1.4,1.4V106.7z"/><path fill="#231f20" d="M128,131.1c-9.2,0-16.6-7.4-16.6-16.6v-11.4c0-1.8,1.5-3.3,3.3-3.3c0.2,0,0.4,0,0.7,0.1 c2.5,0.5,8.6,1.1,12.9-4.1l0,0c0.6-0.7,1.4-1.2,2.4-1.2c0.9,0,1.8,0.3,2.5,0.9c0.9,0.8,3.4,2.8,8.5,2.9c1.7,0.1,3.1,1.5,3.2,3.2 v0.3v12.6C144.6,123.7,137.2,131.1,128,131.1z M116.4,105.2v9.3c0,6.4,5.2,11.6,11.6,11.6c6.4,0,11.6-5.2,11.6-11.6v-11.1 c-3.1-0.2-6.1-1.3-8.7-3.1C126.1,105.2,119.9,105.5,116.4,105.2z M132.1,99L132.1,99L132.1,99z"/><path fill="#231f20" d="M147.1,107.9c-0.6,0-1.3-0.3-1.7-0.7c-0.6-0.6-1.5-1-2.4-1c-0.2,0-0.4,0-0.5,0c-1.4,0.2-2.6-0.7-2.9-2.1 c0-0.1,0-0.3,0-0.4v-0.5c-3.1-0.2-6.1-1.3-8.7-3.1c-5,5.1-11.4,5.3-14.9,4.9c-0.1,0.2-0.3,0.4-0.5,0.6c-0.6,0.5-1.3,0.7-2,0.6 c-0.2,0-0.4,0-0.5,0c-0.8,0-1.5,0.3-2.1,0.7c-1.1,0.9-2.7,0.7-3.5-0.4c-0.4-0.4-0.5-1-0.5-1.6v-6.5c0-9.4,7.6-17.1,17.1-17.1h4.1 c2.9,0,5.7,1.2,7.7,3.3c1.1-0.4,2.2-0.6,3.3-0.6c5.8,0,10.6,4.7,10.6,10.6v10.6C149.6,106.8,148.5,107.9,147.1,107.9L147.1,107.9z M144.6,101.4L144.6,101.4l0-6.6c0-3.1-2.5-5.6-5.5-5.6c-1,0-2,0.3-2.9,0.8c-1.2,0.7-2.7,0.3-3.4-0.9c0,0,0,0,0,0 c-1-1.7-2.8-2.7-4.8-2.7h-4.1c-6.7,0-12.1,5.4-12.1,12.1v2.8l0.2,0c0.7-1.1,2.1-1.6,3.3-1.3c2.5,0.5,8.6,1.1,12.9-4.1 c0.6-0.7,1.4-1.2,2.4-1.2c0.9,0,1.8,0.3,2.5,0.9c0.9,0.8,3.4,2.8,8.5,2.9C143.1,98.5,144.4,99.8,144.6,101.4z"/><path fill="#231f20" d="M131.6,141.9h-6.8c-1.5,0-2.8-0.9-3.2-2.3l-2.2-6.4c-0.1-0.3-0.1-0.5-0.1-0.8v-5.2c0-1.4,1.1-2.5,2.5-2.5 c0.4,0,0.8,0.1,1.1,0.3c1.6,0.8,3.4,1.2,5.2,1.2c1.9,0,3.8-0.5,5.5-1.4c1.2-0.7,2.7-0.2,3.4,1c0.2,0.4,0.3,0.8,0.3,1.2v5.4 c0,0.3,0,0.6-0.1,0.8l-2.2,6.4C134.4,141,133.1,141.9,131.6,141.9z M125.9,136.9h4.6l1.7-4.9v-1.3c-2.6,0.7-5.4,0.7-8,0.1v1.2 L125.9,136.9z"/><path fill="#231f20" d="M128,156.3c-24,0-43.5-19.5-43.5-43.5S104,69.3,128,69.3s43.5,19.5,43.5,43.5c0,0,0,0,0,0 C171.5,136.8,152,156.2,128,156.3z M128,74.3c-21.3,0-38.5,17.2-38.5,38.5s17.2,38.5,38.5,38.5s38.5-17.2,38.5-38.5c0,0,0,0,0,0 C166.5,91.5,149.3,74.3,128,74.3z"/><path fill="#231f20" d="M128,156.3c-11,0-21.6-4.2-29.7-11.7c-0.6-0.6-0.9-1.5-0.8-2.3c0.6-3.1,2.9-5.5,5.9-6.3l10.7-2.7l6.4-3.1 c1.2-0.6,2.7-0.1,3.3,1.1c0,0.1,0.1,0.2,0.1,0.3l1.9,5.3h4.6l1.9-5.3c0.5-1.3,1.9-2,3.2-1.5c0.1,0,0.2,0.1,0.3,0.1l6.4,3.1 l10.7,2.7c2.9,0.7,5.1,3,5.8,5.8c0.2,0.9,0,1.8-0.7,2.4C149.9,152,139.2,156.3,128,156.3z M103,142c14.5,12.4,35.9,12.3,50.3-0.2 c-0.4-0.5-1-0.8-1.6-1l0,0l-11-2.8c-0.2,0-0.3-0.1-0.5-0.2l-4.1-2l-1.3,3.7c-0.5,1.4-1.8,2.3-3.2,2.3h-6.8c-1.5,0-2.8-0.9-3.2-2.3 l-1.3-3.7l-4.1,2c-0.2,0.1-0.3,0.1-0.5,0.2l-11,2.8C104,141,103.4,141.4,103,142z"/><path fill="#231f20" d="M96.9,211.5c-6.5,0-11.8-5.3-11.8-11.8c0-6.5,5.3-11.8,11.8-11.8c6.5,0,11.8,5.3,11.8,11.8 C108.6,206.2,103.3,211.5,96.9,211.5z M96.9,193c-3.7,0-6.8,3-6.8,6.8c0,3.7,3,6.8,6.8,6.8c3.7,0,6.8-3,6.8-6.8 C103.6,196,100.6,193,96.9,193z"/><path fill="#231f20" d="M128,211.5c-6.5,0-11.8-5.3-11.8-11.8c0-6.5,5.3-11.8,11.8-11.8c6.5,0,11.8,5.3,11.8,11.8 C139.7,206.2,134.5,211.5,128,211.5z M128,193c-3.7,0-6.8,3-6.8,6.8c0,3.7,3,6.8,6.8,6.8c3.7,0,6.8-3,6.8-6.8 C134.7,196,131.7,193,128,193z"/><path fill="#231f20" d="M159.1,211.5c-6.5,0-11.8-5.3-11.8-11.8s5.3-11.8,11.8-11.8c6.5,0,11.8,5.3,11.8,11.8 C170.9,206.2,165.6,211.5,159.1,211.5z M159.1,193c-3.7,0-6.8,3-6.8,6.8s3,6.8,6.8,6.8c3.7,0,6.8-3,6.8-6.8 C165.9,196,162.9,193,159.1,193z"/></svg>